<mxfile host="Electron" agent="Mozilla/5.0 (X11; Linux x86_64) AppleWebKit/537.36 (KHTML, like Gecko) draw.io/26.0.4 Chrome/128.0.6613.186 Electron/32.2.5 Safari/537.36" version="26.0.4">
  <diagram name="Page-1" id="ZeC2KmBxTeJ7qJ7TBwTk">
    <mxGraphModel dx="928" dy="856" grid="1" gridSize="10" guides="1" tooltips="1" connect="1" arrows="1" fold="1" page="1" pageScale="1" pageWidth="850" pageHeight="1100" math="0" shadow="0">
      <root>
        <mxCell id="0" />
        <mxCell id="1" parent="0" />
        <mxCell id="girDptoB1-MKlm5c1G7w-2" value="VPC" style="points=[[0,0],[0.25,0],[0.5,0],[0.75,0],[1,0],[1,0.25],[1,0.5],[1,0.75],[1,1],[0.75,1],[0.5,1],[0.25,1],[0,1],[0,0.75],[0,0.5],[0,0.25]];outlineConnect=0;gradientColor=none;html=1;whiteSpace=wrap;fontSize=12;fontStyle=0;container=1;pointerEvents=0;collapsible=0;recursiveResize=0;shape=mxgraph.aws4.group;grIcon=mxgraph.aws4.group_vpc2;strokeColor=#8C4FFF;fillColor=none;verticalAlign=top;align=left;spacingLeft=30;fontColor=#AAB7B8;dashed=0;" vertex="1" parent="1">
          <mxGeometry x="390" y="210" width="280" height="234" as="geometry" />
        </mxCell>
        <mxCell id="girDptoB1-MKlm5c1G7w-1" value="Private subnet" style="points=[[0,0],[0.25,0],[0.5,0],[0.75,0],[1,0],[1,0.25],[1,0.5],[1,0.75],[1,1],[0.75,1],[0.5,1],[0.25,1],[0,1],[0,0.75],[0,0.5],[0,0.25]];outlineConnect=0;gradientColor=none;html=1;whiteSpace=wrap;fontSize=12;fontStyle=0;container=1;pointerEvents=0;collapsible=0;recursiveResize=0;shape=mxgraph.aws4.group;grIcon=mxgraph.aws4.group_security_group;grStroke=0;strokeColor=#00A4A6;fillColor=#E6F6F7;verticalAlign=top;align=left;spacingLeft=30;fontColor=#147EBA;dashed=0;" vertex="1" parent="girDptoB1-MKlm5c1G7w-2">
          <mxGeometry x="20" y="30" width="251.05" height="150" as="geometry" />
        </mxCell>
        <mxCell id="girDptoB1-MKlm5c1G7w-4" value="Security group" style="fillColor=none;strokeColor=#DD3522;verticalAlign=top;fontStyle=0;fontColor=#DD3522;whiteSpace=wrap;html=1;" vertex="1" parent="girDptoB1-MKlm5c1G7w-1">
          <mxGeometry x="20" y="30" width="210" height="110" as="geometry" />
        </mxCell>
        <mxCell id="girDptoB1-MKlm5c1G7w-6" value="" style="sketch=0;points=[[0,0,0],[0.25,0,0],[0.5,0,0],[0.75,0,0],[1,0,0],[0,1,0],[0.25,1,0],[0.5,1,0],[0.75,1,0],[1,1,0],[0,0.25,0],[0,0.5,0],[0,0.75,0],[1,0.25,0],[1,0.5,0],[1,0.75,0]];outlineConnect=0;fontColor=#232F3E;fillColor=#ED7100;strokeColor=#ffffff;dashed=0;verticalLabelPosition=bottom;verticalAlign=top;align=center;html=1;fontSize=12;fontStyle=0;aspect=fixed;shape=mxgraph.aws4.resourceIcon;resIcon=mxgraph.aws4.ec2;" vertex="1" parent="girDptoB1-MKlm5c1G7w-1">
          <mxGeometry x="86" y="54" width="78" height="78" as="geometry" />
        </mxCell>
        <mxCell id="girDptoB1-MKlm5c1G7w-7" value="Route Table&lt;div&gt;(Route Propagation enabled)&lt;/div&gt;" style="sketch=0;outlineConnect=0;fontColor=#232F3E;gradientColor=none;fillColor=#8C4FFF;strokeColor=none;dashed=0;verticalLabelPosition=top;verticalAlign=bottom;align=center;html=1;fontSize=12;fontStyle=0;aspect=fixed;pointerEvents=1;shape=mxgraph.aws4.route_table;labelPosition=center;" vertex="1" parent="girDptoB1-MKlm5c1G7w-1">
          <mxGeometry x="210" y="-14" width="41.05" height="40" as="geometry" />
        </mxCell>
        <mxCell id="girDptoB1-MKlm5c1G7w-8" value="VPN Gateway" style="sketch=0;outlineConnect=0;fontColor=#232F3E;gradientColor=none;fillColor=#8C4FFF;strokeColor=none;dashed=0;verticalLabelPosition=middle;verticalAlign=middle;align=right;html=1;fontSize=12;fontStyle=0;aspect=fixed;pointerEvents=1;shape=mxgraph.aws4.vpn_gateway;labelPosition=left;spacingRight=5;" vertex="1" parent="girDptoB1-MKlm5c1G7w-2">
          <mxGeometry x="113" y="180" width="54" height="54" as="geometry" />
        </mxCell>
        <mxCell id="girDptoB1-MKlm5c1G7w-3" value="Corporate data center" style="points=[[0,0],[0.25,0],[0.5,0],[0.75,0],[1,0],[1,0.25],[1,0.5],[1,0.75],[1,1],[0.75,1],[0.5,1],[0.25,1],[0,1],[0,0.75],[0,0.5],[0,0.25]];outlineConnect=0;gradientColor=none;html=1;whiteSpace=wrap;fontSize=12;fontStyle=0;container=1;pointerEvents=0;collapsible=0;recursiveResize=0;shape=mxgraph.aws4.group;grIcon=mxgraph.aws4.group_corporate_data_center;strokeColor=#7D8998;fillColor=none;verticalAlign=top;align=left;spacingLeft=30;fontColor=#5A6C86;dashed=0;" vertex="1" parent="1">
          <mxGeometry x="390" y="700" width="280" height="200" as="geometry" />
        </mxCell>
        <mxCell id="girDptoB1-MKlm5c1G7w-9" value="Customer&lt;div&gt;Gateway&lt;/div&gt;&lt;div&gt;&lt;b&gt;(Private IP)&lt;/b&gt;&lt;/div&gt;" style="sketch=0;outlineConnect=0;fontColor=#232F3E;gradientColor=none;fillColor=#8C4FFF;strokeColor=none;dashed=0;verticalLabelPosition=bottom;verticalAlign=top;align=center;html=1;fontSize=12;fontStyle=0;aspect=fixed;pointerEvents=1;shape=mxgraph.aws4.customer_gateway;" vertex="1" parent="girDptoB1-MKlm5c1G7w-3">
          <mxGeometry x="28" y="46" width="78" height="78" as="geometry" />
        </mxCell>
        <mxCell id="girDptoB1-MKlm5c1G7w-10" value="Server" style="sketch=0;outlineConnect=0;fontColor=#232F3E;gradientColor=none;fillColor=#232F3D;strokeColor=none;dashed=0;verticalLabelPosition=bottom;verticalAlign=top;align=center;html=1;fontSize=12;fontStyle=0;aspect=fixed;pointerEvents=1;shape=mxgraph.aws4.traditional_server;" vertex="1" parent="girDptoB1-MKlm5c1G7w-3">
          <mxGeometry x="200" y="46" width="45" height="78" as="geometry" />
        </mxCell>
        <mxCell id="girDptoB1-MKlm5c1G7w-11" value="Customer&lt;div&gt;Gateway&lt;/div&gt;&lt;div&gt;&lt;b&gt;(Public IP)&lt;/b&gt;&lt;/div&gt;" style="sketch=0;outlineConnect=0;fontColor=#232F3E;gradientColor=none;fillColor=#8C4FFF;strokeColor=none;dashed=0;verticalLabelPosition=middle;verticalAlign=middle;align=left;html=1;fontSize=12;fontStyle=0;aspect=fixed;pointerEvents=1;shape=mxgraph.aws4.customer_gateway;labelPosition=right;spacingLeft=5;" vertex="1" parent="1">
          <mxGeometry x="630" y="660" width="78" height="78" as="geometry" />
        </mxCell>
        <mxCell id="girDptoB1-MKlm5c1G7w-12" value="NAT Device&lt;div&gt;(Public IP)&lt;/div&gt;" style="whiteSpace=wrap;html=1;fillColor=#dae8fc;strokeColor=#6c8ebf;" vertex="1" parent="1">
          <mxGeometry x="390" y="660" width="80" height="40" as="geometry" />
        </mxCell>
        <mxCell id="girDptoB1-MKlm5c1G7w-21" style="edgeStyle=orthogonalEdgeStyle;rounded=0;orthogonalLoop=1;jettySize=auto;html=1;" edge="1" parent="1" source="girDptoB1-MKlm5c1G7w-15" target="girDptoB1-MKlm5c1G7w-11">
          <mxGeometry relative="1" as="geometry" />
        </mxCell>
        <mxCell id="girDptoB1-MKlm5c1G7w-15" value="VPN Connection" style="sketch=0;outlineConnect=0;fontColor=#232F3E;gradientColor=none;fillColor=#8C4FFF;strokeColor=none;dashed=0;verticalLabelPosition=middle;verticalAlign=middle;align=left;html=1;fontSize=12;fontStyle=0;aspect=fixed;pointerEvents=1;shape=mxgraph.aws4.vpn_connection;spacingLeft=5;labelPosition=right;" vertex="1" parent="1">
          <mxGeometry x="570" y="480" width="70" height="78" as="geometry" />
        </mxCell>
        <mxCell id="girDptoB1-MKlm5c1G7w-22" style="edgeStyle=orthogonalEdgeStyle;rounded=0;orthogonalLoop=1;jettySize=auto;html=1;" edge="1" parent="1" source="girDptoB1-MKlm5c1G7w-17" target="girDptoB1-MKlm5c1G7w-12">
          <mxGeometry relative="1" as="geometry" />
        </mxCell>
        <mxCell id="girDptoB1-MKlm5c1G7w-17" value="VPN Connection" style="sketch=0;outlineConnect=0;fontColor=#232F3E;gradientColor=none;fillColor=#8C4FFF;strokeColor=none;dashed=0;verticalLabelPosition=middle;verticalAlign=middle;align=right;html=1;fontSize=12;fontStyle=0;aspect=fixed;pointerEvents=1;shape=mxgraph.aws4.vpn_connection;labelPosition=left;spacingRight=5;" vertex="1" parent="1">
          <mxGeometry x="425" y="480" width="70" height="78" as="geometry" />
        </mxCell>
        <mxCell id="girDptoB1-MKlm5c1G7w-19" style="edgeStyle=orthogonalEdgeStyle;rounded=0;orthogonalLoop=1;jettySize=auto;html=1;" edge="1" parent="1" source="girDptoB1-MKlm5c1G7w-8" target="girDptoB1-MKlm5c1G7w-17">
          <mxGeometry relative="1" as="geometry">
            <Array as="points">
              <mxPoint x="530" y="460" />
              <mxPoint x="460" y="460" />
            </Array>
          </mxGeometry>
        </mxCell>
        <mxCell id="girDptoB1-MKlm5c1G7w-20" style="edgeStyle=orthogonalEdgeStyle;rounded=0;orthogonalLoop=1;jettySize=auto;html=1;" edge="1" parent="1" source="girDptoB1-MKlm5c1G7w-8" target="girDptoB1-MKlm5c1G7w-15">
          <mxGeometry relative="1" as="geometry">
            <Array as="points">
              <mxPoint x="530" y="460" />
              <mxPoint x="605" y="460" />
            </Array>
          </mxGeometry>
        </mxCell>
        <mxCell id="girDptoB1-MKlm5c1G7w-23" value="OR" style="text;html=1;align=center;verticalAlign=middle;resizable=0;points=[];autosize=1;strokeColor=none;fillColor=none;fontStyle=1;fontSize=22;" vertex="1" parent="1">
          <mxGeometry x="500" y="515" width="60" height="40" as="geometry" />
        </mxCell>
      </root>
    </mxGraphModel>
  </diagram>
</mxfile>
